<svg version="1.1" id="Layer_1" xmlns="http://www.w3.org/2000/svg" xmlns:xlink="http://www.w3.org/1999/xlink" x="0px" y="0px"
	 width="100%" viewBox="160 150 700 700" enable-background="new 0 0 1024 1008" xml:space="preserve">
<style>
    path { fill: black; }
    @media (prefers-color-scheme: dark) {
        path { fill: white; }
    }
</style>
<path opacity="1.000000" stroke="none" 
	d="
M498.671112,378.459503 
	C505.590363,391.365082 508.097870,405.103546 509.224823,419.081665 
	C511.047668,441.690796 510.926666,464.350677 509.167694,486.954956 
	C507.848999,503.901093 505.474274,520.669373 498.386993,536.446899 
	C492.858704,548.753845 484.034363,555.063538 470.219055,554.325317 
	C461.747284,553.872681 453.231049,554.172852 444.736298,554.269409 
	C441.508911,554.306091 439.858948,553.239563 439.629272,549.755676 
	C438.097076,526.513000 436.228271,503.291046 434.865631,480.039093 
	C432.762329,444.149384 430.886932,408.245544 429.093475,372.338776 
	C428.155029,353.550262 427.583740,334.743195 426.870789,315.943604 
	C425.640594,283.505798 424.443726,251.066681 423.184479,218.629990 
	C423.075897,215.832687 423.409729,213.985428 426.837189,213.386337 
	C440.776855,210.949799 454.751648,208.819916 468.866089,207.755905 
	C483.582397,206.646530 493.670319,213.644775 500.394226,226.222855 
	C505.659302,236.072006 508.178772,246.773636 509.159210,257.760254 
	C511.505188,284.048889 511.061890,310.317749 507.177185,336.452240 
	C505.625671,346.890076 502.701965,357.045074 496.761536,365.883789 
	C494.124329,369.807556 493.229706,372.753693 497.128754,376.058685 
	C497.733856,376.571594 498.035217,377.442932 498.671112,378.459503 
M480.792480,492.185303 
	C481.456390,489.961456 482.383972,487.779297 482.743164,485.507263 
	C486.198944,463.647217 485.528229,441.746552 482.781250,419.899963 
	C480.880798,404.785797 477.147461,402.101898 462.352814,403.003143 
	C458.177795,403.257446 457.004944,404.881836 457.038849,408.809418 
	C457.165192,423.449707 457.460724,438.080353 458.164398,452.705872 
	C458.859589,467.155273 459.395477,481.612366 460.034515,496.064575 
	C460.119812,497.993073 459.817993,500.064819 462.576111,500.780060 
	C470.233276,502.765747 476.751495,499.970703 480.792480,492.185303 
M474.408173,264.016113 
	C470.038330,260.265167 465.033081,261.655518 460.086365,262.149017 
	C453.329895,262.823059 453.238617,262.743256 453.345062,269.598053 
	C453.430298,275.087311 453.814606,280.571320 453.953156,286.060516 
	C454.436096,305.198486 453.849884,324.358704 455.131836,343.479431 
	C455.278503,345.667023 454.572662,348.605011 458.117432,348.759705 
	C466.917755,349.143707 475.653229,348.299652 478.727081,336.690918 
	C479.491760,333.802917 480.322021,330.908112 480.762726,327.962616 
	C482.919373,313.548706 482.420990,299.048218 481.380432,284.609558 
	C480.872131,277.556427 480.020996,270.267395 474.408173,264.016113 
z"/>
<path  opacity="1.000000" stroke="none" 
	d="
M687.590210,562.094788 
	C694.266907,561.220093 700.558411,560.545715 706.828735,559.711853 
	C709.952087,559.296570 711.365295,560.195984 711.505981,563.606384 
	C711.938538,574.084961 712.643188,584.552429 713.261353,595.023071 
	C713.386841,597.148254 713.088684,599.353882 714.360413,601.705933 
	C717.730408,599.398865 719.473328,595.949585 721.712219,593.021790 
	C730.617737,581.376343 739.366699,569.610962 748.148987,557.871643 
	C749.563354,555.981079 750.979553,554.259338 753.439758,553.568420 
	C759.849976,551.768250 766.207764,549.782166 772.608887,547.948425 
	C773.657104,547.648132 774.818970,547.744690 775.876587,547.661926 
	C776.742371,549.946350 775.519165,551.533142 774.877502,553.151733 
	C764.998535,578.075317 755.060913,602.975647 745.149109,627.886292 
	C744.354004,629.884583 742.967468,631.979919 743.731689,634.089050 
	C745.520081,639.024414 742.878540,641.434326 739.182617,643.753723 
	C733.963196,647.029358 728.972534,650.667847 723.782593,653.992859 
	C721.416138,655.509094 720.630798,657.137146 720.905823,660.126160 
	C725.122803,705.959229 700.015442,747.580872 656.821350,763.465332 
	C623.542053,775.703674 591.798584,770.843628 563.405518,748.935791 
	C542.065857,732.470276 530.032776,710.390015 526.063171,683.896301 
	C525.481140,680.011108 523.993774,678.985840 520.311829,679.021973 
	C508.290436,679.139709 508.391602,679.042297 505.878387,690.691162 
	C495.857239,737.139343 454.735962,769.537048 409.345520,769.681458 
	C362.953522,769.829041 318.805511,733.070862 312.588196,684.056885 
	C311.658722,676.729553 311.587463,669.429688 311.983032,662.117004 
	C312.178131,658.510193 310.971344,656.221313 307.963196,654.273865 
	C301.813538,650.292542 295.894379,645.956909 289.819580,641.857117 
	C287.710846,640.433838 285.966675,638.668213 286.853668,636.125488 
	C288.670868,630.916016 286.489380,627.159607 283.174774,623.562683 
	C282.410553,622.733398 281.683441,621.739929 281.771515,620.454346 
	C282.158508,619.037781 283.349335,618.909851 284.512878,618.744019 
	C288.302704,618.203979 292.118439,617.802124 295.876556,617.094177 
	C300.644318,616.195984 304.409973,616.228943 308.111023,620.775208 
	C313.644440,627.572205 328.229034,629.102905 335.945343,624.827881 
	C341.404572,621.803345 341.231476,615.254089 335.462158,611.554749 
	C330.220642,608.193726 324.139557,607.923767 318.181519,607.283447 
	C305.598083,605.931213 293.006531,604.832214 281.525391,598.572876 
	C271.042938,592.858032 263.630615,584.380920 259.958282,573.328918 
	C255.656097,560.381287 260.112976,554.856812 270.908356,553.164734 
	C295.625244,549.290649 318.204376,554.755188 338.292694,569.770447 
	C342.131744,572.640015 345.397278,576.218323 346.771057,581.931274 
	C339.025024,582.583008 331.659271,582.562500 324.314270,581.674622 
	C323.229370,581.543518 322.167023,580.187195 321.331024,579.197632 
	C313.750671,570.225830 303.608612,568.577271 292.768005,569.454529 
	C287.812988,569.855530 286.061981,573.677185 288.328339,578.180237 
	C292.102356,585.678955 299.306274,587.472046 306.633820,588.619385 
	C317.970551,590.394470 329.518982,590.992126 340.491425,594.717163 
	C349.569244,597.799011 357.462006,602.371521 361.630249,611.697266 
	C365.698853,620.800110 363.384705,629.315186 355.057770,634.782288 
	C345.811707,640.852722 335.316254,642.466675 324.595306,643.189087 
	C322.324005,643.342102 320.033569,643.211365 317.195251,643.211365 
	C318.788391,645.973328 320.900696,647.050720 322.918976,647.933105 
	C327.116821,649.768494 327.640442,652.693359 326.872742,656.859680 
	C319.217010,698.406677 345.293457,741.001709 385.241974,752.430542 
	C427.894135,764.632874 471.908569,743.139099 487.958435,702.409607 
	C495.397369,683.532043 495.704956,664.470825 490.234711,645.120728 
	C489.751129,643.410156 488.704437,641.763184 489.313477,639.568726 
	C492.642639,638.076355 496.355530,638.555725 499.912292,638.272583 
	C502.142822,638.095032 502.754059,640.177124 503.366638,641.952087 
	C505.440033,647.959656 506.966980,654.105713 507.209747,660.459778 
	C507.328491,663.567566 508.320892,664.846008 511.571625,665.033752 
	C524.717712,665.793152 524.708923,665.885376 526.795776,652.739197 
	C526.952087,651.754272 527.166199,650.774414 527.420410,649.809814 
	C530.985046,636.284302 528.484863,637.766907 544.350647,639.379211 
	C542.956482,645.672791 540.708618,651.687012 539.717529,658.035583 
	C529.948425,720.612610 591.163635,772.544495 650.704346,751.171082 
	C682.983582,739.583740 701.638245,715.493225 706.875305,681.325195 
	C708.285706,672.123230 707.646423,663.060120 705.796021,654.033569 
	C705.219788,651.222717 705.688477,649.117126 708.448425,647.843262 
	C718.317322,643.288452 723.676025,635.319214 727.013672,625.154602 
	C730.277222,615.215820 734.728271,605.666992 737.783630,595.375427 
	C732.643188,601.865356 727.497131,608.350769 722.365295,614.847534 
	C720.403687,617.330933 718.495178,619.856384 716.526733,622.334351 
	C712.608093,627.267395 705.594238,628.817749 699.762451,626.192566 
	C697.837891,625.326294 697.784424,623.732117 697.642700,622.061584 
	C696.898987,613.295410 696.146912,604.529968 694.656128,595.483459 
	C693.259277,599.242126 691.803162,602.979980 690.477356,606.763550 
	C687.393250,615.565369 684.282104,624.359619 681.371155,633.219116 
	C680.273926,636.558350 678.748840,637.936890 674.889160,637.503662 
	C661.711060,636.024780 661.636536,636.175964 665.689453,623.736755 
	C671.827148,604.898926 678.044800,586.087219 684.248291,567.270874 
	C684.866882,565.394714 685.284607,563.365356 687.590210,562.094788 
z"/>
<path  opacity="1.000000" stroke="none" 
	d="
M558.047485,279.781494 
	C557.113525,296.209473 556.210205,312.164856 555.276428,328.118439 
	C554.974915,333.269714 554.721619,338.429199 554.208313,343.561096 
	C553.788147,347.761414 555.269897,349.492096 559.652832,349.825806 
	C568.108887,350.469696 576.512451,351.777985 584.951050,352.688019 
	C588.391418,353.059082 589.398438,354.843384 589.092407,358.099854 
	C587.707214,372.837341 586.477783,387.589417 585.097778,402.327393 
	C584.453918,409.203583 584.190979,409.252502 577.552002,408.524933 
	C570.271362,407.727051 562.951660,407.263123 555.687012,406.350494 
	C551.265625,405.795105 550.608582,408.461182 550.391357,411.683411 
	C549.674744,422.313782 549.012756,432.947968 548.354309,443.582184 
	C547.366882,459.530365 546.397522,475.479675 545.430054,491.429077 
	C545.349426,492.758881 545.491089,494.118225 545.272339,495.420654 
	C544.512695,499.943329 546.930908,501.313019 550.896057,501.491119 
	C560.212219,501.909546 569.522278,502.464111 578.838318,502.887207 
	C586.066406,503.215485 586.341553,503.558838 585.502441,510.833923 
	C583.996887,523.887695 582.584229,536.952209 581.118286,550.010620 
	C580.300232,557.298157 580.285278,557.351074 572.900635,557.103760 
	C556.423462,556.551880 539.949829,555.884705 523.470825,555.398010 
	C520.021912,555.296082 518.567139,553.984802 519.030701,550.522766 
	C520.382202,540.429016 519.879272,530.239197 520.470215,520.097656 
	C521.729004,498.495239 522.111755,476.841766 522.854431,455.209259 
	C524.237183,414.935333 525.584290,374.660126 527.017334,334.387970 
	C527.887756,309.927246 528.886719,285.471130 529.836914,261.013275 
	C530.476868,244.541168 531.147278,228.070206 531.769653,211.597443 
	C531.902649,208.075806 532.481323,205.334320 537.135254,205.859802 
	C561.106079,208.566360 585.216858,210.153534 608.856506,215.435532 
	C612.548401,216.260437 613.321045,217.883865 613.000610,221.289444 
	C611.644531,235.702774 610.428467,250.129959 609.264465,264.560394 
	C608.771179,270.675812 608.416382,271.044128 602.246399,269.799622 
	C590.000610,267.329529 577.596008,265.932861 565.217224,264.381805 
	C559.295288,263.639801 558.483826,264.458099 558.313171,270.313080 
	C558.225830,273.311310 558.148254,276.309845 558.047485,279.781494 
z"/>
<path  opacity="1.000000" stroke="none" 
	d="
M633.739746,419.258728 
	C629.606628,446.763672 625.692505,473.933960 621.559021,501.070862 
	C620.911560,505.321686 622.100098,506.649536 626.329224,506.832031 
	C636.304626,507.262482 646.253601,508.277161 656.226929,508.792725 
	C660.442627,509.010651 661.167358,510.818176 660.329041,514.575684 
	C657.503601,527.239990 654.785889,539.930786 652.253845,552.656555 
	C651.489441,556.498108 648.850891,556.822693 645.968750,556.861511 
	C631.808533,557.052002 617.646973,557.149536 603.485840,557.270508 
	C600.820190,557.293274 598.146545,557.145020 595.490112,557.302734 
	C591.246338,557.554626 590.546692,555.544373 591.045349,551.741943 
	C595.044800,521.245911 598.901855,490.731140 602.777466,460.218903 
	C605.374695,439.771301 608.124084,419.340546 610.456665,398.862518 
	C613.411255,372.923706 615.987305,346.941925 618.773376,320.983673 
	C620.956360,300.644592 623.245728,280.316925 625.418701,259.976776 
	C626.602112,248.900009 627.675171,237.811020 628.730896,226.721146 
	C629.251892,221.248993 629.645630,220.996674 634.765259,222.541061 
	C657.118958,229.284348 678.987366,237.270996 700.086487,247.339508 
	C703.776855,249.100540 705.265259,250.900192 704.478821,255.304657 
	C702.139709,268.404236 700.203003,281.583282 698.463867,294.778046 
	C697.875732,299.239716 696.236877,299.628479 692.591187,297.960846 
	C681.068481,292.689880 669.033081,288.726349 657.145630,284.393494 
	C651.990295,282.514404 651.063354,283.161530 650.394775,288.598206 
	C647.490784,312.210724 644.669495,335.833801 641.634827,359.429443 
	C641.163269,363.095306 642.919067,364.104187 645.823059,364.855164 
	C653.719727,366.897278 661.555481,369.181763 669.477600,371.115601 
	C672.835510,371.935303 674.185181,373.250031 673.521973,376.972748 
	C670.955322,391.379944 668.602112,405.826691 666.338562,420.285217 
	C665.735413,424.137604 663.397034,423.651215 660.841187,423.104950 
	C653.681580,421.574677 646.545288,419.929871 639.364685,418.507507 
	C637.595764,418.157104 635.537048,416.622070 633.739746,419.258728 
z"/>
<path  opacity="1.000000" stroke="none" 
	d="
M343.020630,362.733521 
	C340.660309,339.433258 338.296631,316.591492 336.094208,293.734222 
	C334.594086,278.165955 333.341888,262.573975 331.919434,246.998001 
	C331.711426,244.719955 332.368195,243.226608 334.500153,242.183578 
	C356.757446,231.294464 380.245270,223.931046 404.160736,217.789703 
	C404.914093,217.596237 405.760529,217.765198 406.565521,217.765198 
	C407.983643,220.416565 407.852539,223.126053 407.980011,225.729401 
	C408.663940,239.698990 409.191742,253.676300 409.902924,267.644379 
	C410.058746,270.704956 408.528900,271.676208 405.911804,272.260468 
	C393.716400,274.982941 381.764465,278.611633 369.737610,281.973724 
	C364.370880,283.473999 362.692993,286.013794 363.182587,291.526184 
	C365.155579,313.738495 366.720184,335.987000 368.449188,358.221100 
	C368.775330,362.415466 370.140503,364.403778 375.118286,363.015442 
	C382.636078,360.918732 390.423584,359.805817 398.059570,358.108673 
	C401.341705,357.379211 402.814240,358.664642 403.062622,361.765289 
	C404.311920,377.360718 405.499298,392.961273 406.797668,408.552582 
	C407.087585,412.034119 404.982361,412.763000 402.280670,413.171234 
	C394.547119,414.339783 386.829681,415.619995 379.085510,416.711548 
	C375.401825,417.230713 374.371918,418.666901 374.770874,422.678711 
	C377.274445,447.852234 381.210693,472.839874 384.118103,497.955811 
	C384.561768,501.788605 385.958923,503.219177 389.740204,503.032043 
	C399.887146,502.529877 410.044220,502.235413 420.195557,501.816864 
	C423.039001,501.699646 424.997101,502.317871 425.297913,505.726654 
	C426.585144,520.314697 427.938049,534.897949 429.439240,549.465271 
	C429.802490,552.990295 428.673859,554.354431 425.142029,554.249268 
	C408.490875,553.753235 391.837433,553.327332 375.183136,552.949829 
	C371.460175,552.865417 370.109680,550.959778 369.476562,547.459656 
	C364.470520,519.784607 359.719299,492.065704 355.790558,464.219147 
	C352.303741,439.505005 349.191376,414.737366 346.021851,389.979492 
	C344.881104,381.068878 344.055420,372.117981 343.020630,362.733521 
z"/>
<path  opacity="1.000000" stroke="none" 
	d="
M740.859558,412.776031 
	C725.688660,445.398956 710.698486,477.693481 695.210632,511.060181 
	C708.076294,512.353943 720.143494,511.160156 731.712219,511.947235 
	C732.609070,513.782654 732.133423,514.872498 731.782959,515.985352 
	C728.432068,526.625000 725.028931,537.248840 721.788147,547.921997 
	C720.927429,550.756958 719.264648,551.921448 716.408203,552.126831 
	C698.807495,553.392273 681.208191,554.683777 663.619080,556.099182 
	C658.631470,556.500549 659.299805,553.824463 659.853760,550.496155 
	C664.543640,522.317383 675.355652,496.309296 687.028320,470.444000 
	C707.582825,424.897766 727.312378,378.979523 747.486206,333.260620 
	C748.876221,330.110352 748.663574,328.258026 745.629822,326.249908 
	C735.195129,319.342834 724.463379,312.955963 713.254639,307.419678 
	C709.491333,305.560883 708.385254,303.439575 709.183105,299.186890 
	C711.605469,286.275238 713.606384,273.280701 715.549866,260.285339 
	C716.122375,256.457855 717.683411,256.231812 720.514221,258.000427 
	C741.050232,270.830750 760.989929,284.406433 777.390625,302.539185 
	C779.511475,304.884003 779.932922,307.044403 779.551636,310.174072 
	C777.130493,330.048859 771.294250,348.764038 762.321472,366.682709 
	C754.791931,381.719452 748.101990,397.176605 740.859558,412.776031 
z"/>
<path  opacity="1.000000" stroke="none" 
	d="
M329.492493,509.618622 
	C332.514954,523.135742 336.507812,536.009460 338.783752,549.919922 
	C331.850708,550.820496 325.473969,549.930725 319.180359,548.834412 
	C317.019379,548.457947 316.916107,545.778015 316.385010,543.877686 
	C308.989014,517.412659 303.281982,490.553558 297.716156,463.663116 
	C294.894043,450.028473 288.611725,437.611877 283.864838,424.674042 
	C270.786377,389.028107 258.693970,353.069183 247.554672,316.778137 
	C246.530319,313.440765 246.703842,310.699799 249.133408,308.039368 
	C254.251724,302.434692 259.266937,296.739227 265.985718,290.876221 
	C276.040436,324.979828 285.406464,358.123810 296.045441,390.861115 
	C296.613098,390.790649 297.180725,390.720184 297.748352,390.649719 
	C297.748352,388.081543 297.795380,385.512421 297.741241,382.945404 
	C296.961823,345.973602 296.865265,308.996857 296.732391,272.018951 
	C296.713440,266.753754 298.239197,263.281799 302.765991,260.544922 
	C308.963470,256.797974 314.786194,252.425385 321.783020,249.164001 
	C322.866425,253.634384 322.286530,257.435028 322.076691,261.160004 
	C320.418793,290.587646 319.965668,320.053802 318.977875,349.503052 
	C318.089600,375.985626 318.960968,402.479492 318.027924,428.936096 
	C317.327148,448.807465 320.510864,468.031830 324.776459,487.231567 
	C326.399994,494.539154 327.862335,501.882538 329.492493,509.618622 
z"/>
<path  opacity="1.000000" stroke="none" 
	d="
M208.706024,422.981964 
	C207.228088,406.733398 208.633102,391.286102 213.623688,376.215393 
	C213.880371,375.440277 213.833542,374.556183 215.710876,373.499603 
	C218.521805,393.526276 218.865067,413.449554 222.701141,432.974792 
	C223.723007,432.165527 223.569992,431.101196 223.608521,430.151978 
	C224.674957,403.875824 225.934387,377.604462 226.632614,351.318268 
	C226.834808,343.705688 228.178314,336.902435 232.714615,330.716400 
	C236.107971,326.088989 238.665649,320.835297 243.208633,316.309052 
	C244.857727,319.391052 244.155838,322.044647 243.970825,324.548035 
	C241.504547,357.920959 241.160324,391.392517 239.241455,424.789520 
	C239.054291,428.047089 239.762939,430.987030 241.086365,433.952393 
	C257.108215,469.852112 274.754974,504.959290 292.644897,539.949097 
	C293.610779,541.838257 294.858185,543.629211 295.139557,546.297241 
	C289.738800,547.360168 284.894989,545.136108 279.915771,544.840088 
	C274.436768,544.514343 271.565155,541.511963 269.129974,536.756287 
	C258.352753,515.709167 247.440491,494.735565 237.774475,473.142334 
	C237.376190,472.252563 236.855362,471.417664 236.071350,469.962891 
	C231.338028,495.237518 244.516541,516.116821 250.520462,538.506592 
	C241.752609,539.471008 232.237137,534.364685 229.263336,527.226501 
	C219.261490,503.218597 213.882599,478.038177 210.799850,452.341278 
	C209.652039,442.773438 209.383896,433.100037 208.706024,422.981964 
z"/>
<path  opacity="1.000000" stroke="none" 
	d="
M785.933472,312.370270 
	C786.732910,313.214661 787.272766,313.848541 787.783447,314.505066 
	C802.980957,334.040894 803.641357,337.488586 800.776306,362.188934 
	C798.803650,379.195251 797.651245,396.300232 796.328979,413.376373 
	C795.932068,418.502258 794.689209,423.585205 795.458740,429.910950 
	C804.184814,410.894318 810.074890,391.868256 815.987915,372.609680 
	C818.918457,374.272614 818.619263,376.738037 819.021301,378.674347 
	C820.372437,385.182434 821.290894,391.780029 822.622314,398.292786 
	C823.113159,400.693726 822.842407,402.823914 822.225769,405.125793 
	C816.378357,426.950470 807.638794,447.622742 796.987000,467.470245 
	C791.812500,477.111847 788.869629,487.490479 785.457092,497.738617 
	C780.933655,511.322693 776.041931,524.767334 770.784851,538.085999 
	C769.487915,541.371704 767.508850,543.235718 764.047729,543.912415 
	C759.048340,544.889648 754.101318,546.135010 749.286499,547.230835 
	C747.760620,544.772949 748.977539,543.149780 749.605774,541.527283 
	C758.082581,519.633484 765.367126,497.329132 772.565063,474.994843 
	C774.890564,467.779388 774.967102,460.214935 775.512878,452.793823 
	C778.269531,415.305054 781.698486,377.861725 783.518433,340.308441 
	C783.913147,332.163849 783.667480,323.989655 783.860107,315.832489 
	C783.891418,314.509460 782.703186,312.204681 785.933472,312.370270 
z"/>
<path  opacity="1.000000" stroke="none" 
	d="
M494.538879,566.133667 
	C502.475952,568.883667 509.653351,571.983093 512.137756,580.642273 
	C514.545898,589.035583 511.525513,596.053467 503.734833,600.362183 
	C502.873383,600.838623 502.015411,601.321411 500.571381,602.127502 
	C506.522339,610.264221 512.331543,618.207153 518.795166,627.044861 
	C511.097321,627.712524 504.557037,627.867004 498.081818,626.774048 
	C496.788269,626.555786 495.684937,624.602661 494.695679,623.296692 
	C490.877167,618.255310 487.165436,613.133240 483.364380,608.078491 
	C480.874756,604.767761 473.542847,602.931946 469.876953,604.580322 
	C467.702789,605.557983 468.388092,607.284058 468.740570,608.855774 
	C469.832123,613.723389 470.964966,618.582336 472.144989,623.429260 
	C472.908264,626.564575 472.002258,628.308960 468.528839,628.140564 
	C468.363190,628.132507 468.196014,628.149597 468.029846,628.159912 
	C452.884521,629.098572 452.855377,629.106262 449.001892,614.403076 
	C444.868805,598.633057 440.794739,582.847534 436.708008,567.065369 
	C436.464722,566.125671 436.338013,565.155884 436.197968,564.416138 
	C437.205200,562.737305 438.642426,562.888123 439.921722,562.923218 
	C456.386383,563.375488 472.873077,563.320740 489.289246,564.920776 
	C490.930786,565.080750 492.533936,565.634888 494.538879,566.133667 
M473.515564,576.983154 
	C469.901642,576.983154 466.287689,576.983154 462.270294,576.983154 
	C462.558502,581.696106 463.775696,585.643860 464.879150,589.599976 
	C465.348358,591.282104 466.736023,591.826294 468.382111,591.815491 
	C473.873596,591.779358 479.377625,591.957458 484.851929,591.633301 
	C488.168427,591.436951 491.117523,589.889038 491.543915,586.080200 
	C491.949280,582.459412 489.826447,580.206909 486.729034,578.675415 
	C482.820435,576.742859 478.610504,577.182251 473.515564,576.983154 
z"/>
<path  opacity="1.000000" stroke="none" 
	d="
M631.005859,564.682983 
	C635.282532,564.440491 639.102051,564.231934 642.916687,563.957092 
	C646.096802,563.728088 647.814331,564.932678 648.318726,568.296936 
	C651.399231,588.845154 654.023499,609.450684 656.509338,630.077454 
	C657.006409,634.201782 655.695923,635.735596 651.630066,634.911011 
	C650.490845,634.679932 649.331116,634.523926 648.173096,634.415466 
	C637.935181,633.455994 637.844421,633.478882 635.928467,623.588867 
	C635.448486,621.111328 634.331116,620.257568 631.966553,620.166504 
	C625.653259,619.923340 619.340698,619.606201 613.037720,619.174316 
	C609.963318,618.963623 607.619873,620.091858 606.725342,622.919312 
	C604.438538,630.147827 599.372864,631.429077 592.758911,630.117188 
	C590.024353,629.574768 587.227051,629.348511 584.743958,629.016663 
	C583.859802,627.061157 584.812622,626.029114 585.524658,624.924194 
	C597.330750,606.603027 609.216187,588.332031 620.871521,569.915405 
	C623.265747,566.132263 625.959961,563.921631 631.005859,564.682983 
M629.168518,587.025696 
	C625.271667,593.237915 621.374756,599.450195 616.992126,606.436829 
	C623.440247,606.667419 628.500610,607.311646 633.837280,606.573120 
	C634.124512,599.772888 632.968506,593.434631 631.961548,587.083313 
	C631.613647,584.889160 630.716248,585.085510 629.168518,587.025696 
z"/>
<path  opacity="1.000000" stroke="none" 
	d="
M580.527344,627.534302 
	C578.408020,629.973938 575.913025,629.204102 573.711365,629.030701 
	C559.920044,627.944519 546.101196,628.185669 532.294434,628.120178 
	C527.681519,628.098328 525.733887,626.712830 525.826721,621.809692 
	C526.148132,604.836548 525.584167,587.866150 524.633118,570.920227 
	C524.362000,566.090393 525.957764,564.607239 530.794067,564.692627 
	C547.934814,564.995422 565.083313,564.829285 582.227417,564.994629 
	C584.867981,565.020081 588.815125,563.685669 588.787842,568.659546 
	C588.745056,576.465271 587.344299,578.281799 581.586792,578.275818 
	C571.599304,578.265564 561.604187,578.442871 551.627747,578.096252 
	C546.834045,577.929688 546.086487,580.100464 546.272156,584.106323 
	C546.439575,587.719482 545.787109,591.073853 551.410461,590.813049 
	C559.047668,590.458984 566.719299,590.825012 574.375671,590.919983 
	C576.787048,590.949890 579.779785,591.144592 578.889221,594.478638 
	C578.043945,597.643311 580.395325,603.114380 574.199646,603.275574 
	C566.548462,603.474670 558.885437,603.359863 551.230591,603.217102 
	C547.930847,603.155518 545.486023,603.731995 546.004700,607.777283 
	C546.436096,611.142151 544.134460,615.976929 550.701233,616.065308 
	C558.018066,616.163818 565.328857,616.644775 572.645386,616.849976 
	C582.554565,617.128113 582.555847,617.083496 580.527344,627.534302 
z"/>
<path  opacity="1.000000" stroke="none" 
	d="
M400.166199,631.064941 
	C393.475555,614.168640 386.919159,597.616821 380.750458,580.921753 
	C379.193024,576.706604 377.206879,574.748352 372.530396,574.900696 
	C366.559052,575.095093 360.564087,574.402649 354.576508,574.333313 
	C351.711212,574.300110 349.808502,573.327515 348.779175,570.631042 
	C347.368958,566.936829 345.271973,563.498962 344.501770,559.685852 
	C345.662445,557.832214 347.247589,558.470581 348.677277,558.539551 
	C372.604736,559.694397 396.529419,560.910156 420.461304,561.963562 
	C424.322632,562.133484 426.839935,563.282410 427.434875,567.406860 
	C427.829834,570.144775 429.605194,572.621460 429.042389,576.257751 
	C420.682190,576.257751 412.310913,576.257751 402.979919,576.257751 
	C409.163483,594.539551 415.037750,611.906860 421.115753,629.876587 
	C413.804962,631.190613 407.207367,632.139526 400.166199,631.064941 
z"/>
</svg>